<svg width="24" height="24" viewBox="0 0 24 24" fill="none" xmlns="http://www.w3.org/2000/svg">
<g id="Logo">
<path id="Vector" d="M23.8104 12.1216C23.8104 11.3157 23.7451 10.5054 23.6057 9.71251H12.4226V14.2781H18.8266C18.5609 15.7506 17.707 17.0532 16.4567 17.8809V20.8433H20.2773C22.5209 18.7783 23.8104 15.7288 23.8104 12.1216Z" fill="#4285F4"/>
<path id="Vector_2" d="M12.4231 23.7053C15.6207 23.7053 18.3174 22.6554 20.2821 20.8431L16.4615 17.8807C15.3985 18.6039 14.0262 19.0134 12.4274 19.0134C9.33432 19.0134 6.71173 16.9266 5.77073 14.1211H1.82812V17.1749C3.84081 21.1785 7.94025 23.7053 12.4231 23.7053Z" fill="#34A853"/>
<path id="Vector_3" d="M5.76634 14.1215C5.2697 12.649 5.2697 11.0546 5.76634 9.58208V6.5282H1.82809C0.146495 9.87832 0.146495 13.8253 1.82809 17.1754L5.76634 14.1215Z" fill="#FBBC04"/>
<path id="Vector_4" d="M12.4232 4.68542C14.1135 4.65928 15.7472 5.29533 16.9713 6.46286L20.3563 3.07789C18.2129 1.0652 15.3682 -0.0413465 12.4232 -0.00649473C7.94037 -0.00649473 3.84094 2.52026 1.82825 6.52821L5.7665 9.5821C6.70314 6.77217 9.33009 4.68542 12.4232 4.68542Z" fill="#EA4335"/>
</g>
</svg>
